#!OML:ASF H:\Not Pregnant\Project 1\Capture day 1\Session 1\non-pregnant.ASF
:FULLY-SPECIFIED
:DEGREES
757
root -5.10988 16.0114 41.4437 -163.141 -4.23061 -178.705
lowerback -5.47325 2.09575 3.88315
upperback -8.61902 1.85041 -0.167033
thorax -5.76463 0.29666 -2.2947
lowerneck 14.1031 -6.69827 -31.8706
upperneck 0.0139229 -17.7653 37.2731
head 4.33761 -11.1398 18.7578
rclavicle -3.926e-015 1.59028e-015
rhumerus -39.0031 -7.11289 -80.6678
rradius 28.8425
rwrist 20.761
rhand -7.75132 -1.18625
rfingers 7.12502
rthumb 18.1481 -30.3596
lclavicle -3.926e-015 1.59028e-015
lhumerus -44.6337 -5.48754 87.7558
lradius 41.1992
lwrist 40.5102
lhand -16.0912 -12.0166
lfingers 7.12502
lthumb 10.1122 17.7204
rfemur -27.5944 -16.4759 27.9053
rtibia 26.6232
rfoot -19.5519 23.0049
rtoes -2.34904
lfemur -26.7487 12.29 -22.8556
ltibia 26.1623
lfoot -19.4063 -18.9682
ltoes -1.68298
758
root -5.11961 16.0116 41.4487 -163.15 -4.24199 -178.667
lowerback -5.55275 2.12557 3.87251
upperback -8.63861 1.88134 -0.147152
thorax -5.7394 0.310812 -2.26577
lowerneck 13.9117 -6.58692 -31.8379
upperneck 0.350667 -17.583 37.1302
head 4.36633 -11.0242 18.7051
rclavicle -1.81764e-014 -1.0138e-014
rhumerus -38.8477 -7.21383 -80.6349
rradius 28.9257
rwrist 20.7109
rhand -7.97129 -1.23818
rfingers 7.12502
rthumb 17.9365 -30.4311
lclavicle -1.81764e-014 -1.0138e-014
lhumerus -44.5451 -5.48788 87.8207
lradius 41.246
lwrist 40.5683
lhand -16.1623 -12.1128
lfingers 7.12502
lthumb 10.0436 17.6275
rfemur -27.618 -16.5133 27.9159
rtibia 26.6312
rfoot -19.4826 23.0649
rtoes -2.31095
lfemur -26.7778 12.3851 -22.8684
ltibia 26.1668
lfoot -19.3392 -19.1731
ltoes -1.34451
759
root -5.12885 16.0118 41.4541 -163.171 -4.25939 -178.629
lowerback -5.60883 2.14973 3.86071
upperback -8.65282 1.90763 -0.1256
thorax -5.7221 0.323504 -2.23502
lowerneck 13.7008 -6.46625 -31.7963
upperneck 0.699145 -17.38 36.9838
head 4.39262 -10.8965 18.6514
rclavicle 1.27284e-014 0
rhumerus -38.6863 -7.31875 -80.6019
rradius 29.0186
rwrist 20.6342
rhand -8.1745 -1.32599
rfingers 7.12502
rthumb 17.7409 -30.5367
lclavicle 1.27284e-014 0
lhumerus -44.452 -5.49273 87.8859
lradius 41.2669
lwrist 40.5946
lhand -16.202 -12.1548
lfingers 7.12502
lthumb 10.0053 17.5874
rfemur -27.6209 -16.4977 27.9135
rtibia 26.637
rfoot -19.4268 23.0473
rtoes -2.35264
lfemur -26.7949 12.4567 -22.8731
ltibia 26.1735
lfoot -19.2837 -19.3434
ltoes -1.0536
760
root -5.13773 16.0117 41.4599 -163.208 -4.27192 -178.589
lowerback -5.6341 2.17395 3.85194
upperback -8.66506 1.93686 -0.10553
thorax -5.71985 0.337797 -2.20823
lowerneck 13.47 -6.33406 -31.749
upperneck 1.06002 -17.1556 36.8401
head 4.41781 -10.7574 18.6009
rclavicle 1.48592e-014 2.0276e-014
rhumerus -38.531 -7.42058 -80.5748
rradius 29.1253
rwrist 20.5185
rhand -8.35081 -1.43614
rfingers 7.12502
rthumb 17.5713 -30.6621
lclavicle 1.48592e-014 2.0276e-014
lhumerus -44.3624 -5.50759 87.9504
lradius 41.2583
lwrist 40.5944
lhand -16.2065 -12.1641
lfingers 7.12502
lthumb 10.0009 17.5783
rfemur -27.5989 -16.4309 27.8978
rtibia 26.6416
rfoot -19.3867 22.9638
rtoes -2.45909
lfemur -26.7934 12.5155 -22.87
ltibia 26.1811
lfoot -19.2427 -19.479
ltoes -0.823816
761
root -5.14625 16.0114 41.4658 -163.261 -4.27364 -178.547
lowerback -5.63991 2.19903 3.84453
upperback -8.67246 1.96956 -0.0881314
thorax -5.72308 0.354295 -2.18544
lowerneck 13.2237 -6.19593 -31.6943
upperneck 1.43137 -16.92 36.6985
head 4.44449 -10.6123 18.551
rclavicle 2.25869e-014 4.17448e-015
rhumerus -38.3809 -7.52211 -80.5561
rradius 29.2379
rwrist 20.3793
rhand -8.50783 -1.53866
rfingers 7.12502
rthumb 17.4201 -30.7781
lclavicle 2.25869e-014 4.17448e-015
lhumerus -44.2826 -5.5391 88.0144
lradius 41.2334
lwrist 40.5818
lhand -16.2098 -12.1303
lfingers 7.12502
lthumb 9.99776 17.6123
rfemur -27.5509 -16.3136 27.869
rtibia 26.6455
rfoot -19.3601 22.8227
rtoes -2.62201
lfemur -26.7691 12.5628 -22.8577
ltibia 26.1884
lfoot -19.2166 -19.5744
ltoes -0.654564
